<?xml version="1.0" encoding="utf-8" ?>
<svg baseProfile="full" height="100%" style="enable-background:new 0 0 100 100;" version="1.1" viewBox="0 0 100 100" width="100%" x="0" xmlns="http://www.w3.org/2000/svg" xmlns:ev="http://www.w3.org/2001/xml-events" xmlns:xlink="http://www.w3.org/1999/xlink" y="0"><defs /><polygon fill="#CBA349" points="62,47.2 24.7,5.8 22.6,8.1 57.9,47.2" /><polygon fill="#CBA349" points="55.8,47.2 21.6,9.2 19.5,11.6 51.6,47.2" /><polygon fill="#13007C" points="74.5,47.2 70.4,47.2 32,4.6 34.1,2.3" /><polygon fill="#CBA349" points="28.9,8.1 64.1,47.2 68.3,47.2 31,5.8" /><polygon fill="#008837" points="28.5,47.2 49.5,47.2 39,35.5" /><polygon fill="#0E0E6B" points="9.7,47.2 13.9,47.2 21.8,38.5 17.6,38.5" /><polygon fill="#0E0E6B" points="3.5,47.2 7.6,47.2 15.5,38.5 11.4,38.5" /><polygon fill="#CBA349" points="22.2,47.2 26.4,47.2 32.4,40.5 38,34.4 35.9,32.1" /><path d="M16,47.2 h4.2 l14.7,-16.3 C30.4,26,26,21.1,21.6,16.2 l-3.2,&#10;    3.6,1,1.2 -4.1,4.6 -0.8,0.9 -0.2,0.2 1.5,1.7 -1,1.2 1.3,1.5 -1.3,1.4 1,&#10;    1.1 -3,3.4 h12.5 L16,47.2 z m6.2,0 h4.2 l6,-6.7 5.6,-6.1 -2.1,-2.3 z" fill="#CBA349" /></svg>