<?xml version="1.0" encoding="utf-8" standalone="no"?>
<!DOCTYPE svg PUBLIC "-//W3C//DTD SVG 1.1//EN"
  "http://www.w3.org/Graphics/SVG/1.1/DTD/svg11.dtd">
<svg xmlns:xlink="http://www.w3.org/1999/xlink" width="432pt" height="432pt" viewBox="0 0 432 432" xmlns="http://www.w3.org/2000/svg" version="1.1">
 <metadata>
  <rdf:RDF xmlns:dc="http://purl.org/dc/elements/1.1/" xmlns:cc="http://creativecommons.org/ns#" xmlns:rdf="http://www.w3.org/1999/02/22-rdf-syntax-ns#">
   <cc:Work>
    <dc:type rdf:resource="http://purl.org/dc/dcmitype/StillImage"/>
    <dc:date>2023-11-22T10:52:55.981910</dc:date>
    <dc:format>image/svg+xml</dc:format>
    <dc:creator>
     <cc:Agent>
      <dc:title>Matplotlib v3.8.0, https://matplotlib.org/</dc:title>
     </cc:Agent>
    </dc:creator>
   </cc:Work>
  </rdf:RDF>
 </metadata>
 <defs>
  <style type="text/css">*{stroke-linejoin: round; stroke-linecap: butt}</style>
 </defs>
 <g id="figure_1">
  <g id="patch_1">
   <path d="M 0 432 
L 432 432 
L 432 0 
L 0 0 
z
" style="fill: #ffffff"/>
  </g>
  <g id="axes_1">
   <g id="patch_2">
    <path d="M 54 384.48 
L 388.8 384.48 
L 388.8 51.84 
L 54 51.84 
z
" style="fill: #ffffff"/>
   </g>
   <g id="matplotlib.axis_1">
    <g id="xtick_1">
     <g id="line2d_1">
      <path d="M 85.293713 384.48 
L 85.293713 51.84 
" clip-path="url(#p49fbeaba50)" style="fill: none; stroke-dasharray: 1.85,0.8; stroke-dashoffset: 0; stroke: #808080; stroke-width: 0.5"/>
     </g>
     <g id="line2d_2">
      <defs>
       <path id="m54437a5627" d="M 0 0 
L 0 3.5 
" style="stroke: #000000; stroke-width: 0.8"/>
      </defs>
      <g>
       <use xlink:href="#m54437a5627" x="85.293713" y="239.759813" style="stroke: #000000; stroke-width: 0.8"/>
      </g>
     </g>
     <g id="text_1">
      <!-- −10.0 -->
      <g transform="translate(69.971057 254.358251) scale(0.1 -0.1)">
       <defs>
        <path id="DejaVuSans-2212" d="M 678 2272 
L 4684 2272 
L 4684 1741 
L 678 1741 
L 678 2272 
z
" transform="scale(0.015625)"/>
        <path id="DejaVuSans-31" d="M 794 531 
L 1825 531 
L 1825 4091 
L 703 3866 
L 703 4441 
L 1819 4666 
L 2450 4666 
L 2450 531 
L 3481 531 
L 3481 0 
L 794 0 
L 794 531 
z
" transform="scale(0.015625)"/>
        <path id="DejaVuSans-30" d="M 2034 4250 
Q 1547 4250 1301 3770 
Q 1056 3291 1056 2328 
Q 1056 1369 1301 889 
Q 1547 409 2034 409 
Q 2525 409 2770 889 
Q 3016 1369 3016 2328 
Q 3016 3291 2770 3770 
Q 2525 4250 2034 4250 
z
M 2034 4750 
Q 2819 4750 3233 4129 
Q 3647 3509 3647 2328 
Q 3647 1150 3233 529 
Q 2819 -91 2034 -91 
Q 1250 -91 836 529 
Q 422 1150 422 2328 
Q 422 3509 836 4129 
Q 1250 4750 2034 4750 
z
" transform="scale(0.015625)"/>
        <path id="DejaVuSans-2e" d="M 684 794 
L 1344 794 
L 1344 0 
L 684 0 
L 684 794 
z
" transform="scale(0.015625)"/>
       </defs>
       <use xlink:href="#DejaVuSans-2212"/>
       <use xlink:href="#DejaVuSans-31" x="83.789062"/>
       <use xlink:href="#DejaVuSans-30" x="147.412109"/>
       <use xlink:href="#DejaVuSans-2e" x="211.035156"/>
       <use xlink:href="#DejaVuSans-30" x="242.822266"/>
      </g>
     </g>
    </g>
    <g id="xtick_2">
     <g id="line2d_3">
      <path d="M 125.661289 384.48 
L 125.661289 51.84 
" clip-path="url(#p49fbeaba50)" style="fill: none; stroke-dasharray: 1.85,0.8; stroke-dashoffset: 0; stroke: #808080; stroke-width: 0.5"/>
     </g>
     <g id="line2d_4">
      <g>
       <use xlink:href="#m54437a5627" x="125.661289" y="239.759813" style="stroke: #000000; stroke-width: 0.8"/>
      </g>
     </g>
     <g id="text_2">
      <!-- −7.5 -->
      <g transform="translate(113.519883 254.358251) scale(0.1 -0.1)">
       <defs>
        <path id="DejaVuSans-37" d="M 525 4666 
L 3525 4666 
L 3525 4397 
L 1831 0 
L 1172 0 
L 2766 4134 
L 525 4134 
L 525 4666 
z
" transform="scale(0.015625)"/>
        <path id="DejaVuSans-35" d="M 691 4666 
L 3169 4666 
L 3169 4134 
L 1269 4134 
L 1269 2991 
Q 1406 3038 1543 3061 
Q 1681 3084 1819 3084 
Q 2600 3084 3056 2656 
Q 3513 2228 3513 1497 
Q 3513 744 3044 326 
Q 2575 -91 1722 -91 
Q 1428 -91 1123 -41 
Q 819 9 494 109 
L 494 744 
Q 775 591 1075 516 
Q 1375 441 1709 441 
Q 2250 441 2565 725 
Q 2881 1009 2881 1497 
Q 2881 1984 2565 2268 
Q 2250 2553 1709 2553 
Q 1456 2553 1204 2497 
Q 953 2441 691 2322 
L 691 4666 
z
" transform="scale(0.015625)"/>
       </defs>
       <use xlink:href="#DejaVuSans-2212"/>
       <use xlink:href="#DejaVuSans-37" x="83.789062"/>
       <use xlink:href="#DejaVuSans-2e" x="147.412109"/>
       <use xlink:href="#DejaVuSans-35" x="179.199219"/>
      </g>
     </g>
    </g>
    <g id="xtick_3">
     <g id="line2d_5">
      <path d="M 166.028866 384.48 
L 166.028866 51.84 
" clip-path="url(#p49fbeaba50)" style="fill: none; stroke-dasharray: 1.85,0.8; stroke-dashoffset: 0; stroke: #808080; stroke-width: 0.5"/>
     </g>
     <g id="line2d_6">
      <g>
       <use xlink:href="#m54437a5627" x="166.028866" y="239.759813" style="stroke: #000000; stroke-width: 0.8"/>
      </g>
     </g>
     <g id="text_3">
      <!-- −5.0 -->
      <g transform="translate(153.887459 254.358251) scale(0.1 -0.1)">
       <use xlink:href="#DejaVuSans-2212"/>
       <use xlink:href="#DejaVuSans-35" x="83.789062"/>
       <use xlink:href="#DejaVuSans-2e" x="147.412109"/>
       <use xlink:href="#DejaVuSans-30" x="179.199219"/>
      </g>
     </g>
    </g>
    <g id="xtick_4">
     <g id="line2d_7">
      <path d="M 206.396442 384.48 
L 206.396442 51.84 
" clip-path="url(#p49fbeaba50)" style="fill: none; stroke-dasharray: 1.85,0.8; stroke-dashoffset: 0; stroke: #808080; stroke-width: 0.5"/>
     </g>
     <g id="line2d_8">
      <g>
       <use xlink:href="#m54437a5627" x="206.396442" y="239.759813" style="stroke: #000000; stroke-width: 0.8"/>
      </g>
     </g>
     <g id="text_4">
      <!-- −2.5 -->
      <g transform="translate(194.255035 254.358251) scale(0.1 -0.1)">
       <defs>
        <path id="DejaVuSans-32" d="M 1228 531 
L 3431 531 
L 3431 0 
L 469 0 
L 469 531 
Q 828 903 1448 1529 
Q 2069 2156 2228 2338 
Q 2531 2678 2651 2914 
Q 2772 3150 2772 3378 
Q 2772 3750 2511 3984 
Q 2250 4219 1831 4219 
Q 1534 4219 1204 4116 
Q 875 4013 500 3803 
L 500 4441 
Q 881 4594 1212 4672 
Q 1544 4750 1819 4750 
Q 2544 4750 2975 4387 
Q 3406 4025 3406 3419 
Q 3406 3131 3298 2873 
Q 3191 2616 2906 2266 
Q 2828 2175 2409 1742 
Q 1991 1309 1228 531 
z
" transform="scale(0.015625)"/>
       </defs>
       <use xlink:href="#DejaVuSans-2212"/>
       <use xlink:href="#DejaVuSans-32" x="83.789062"/>
       <use xlink:href="#DejaVuSans-2e" x="147.412109"/>
       <use xlink:href="#DejaVuSans-35" x="179.199219"/>
      </g>
     </g>
    </g>
    <g id="xtick_5">
     <g id="line2d_9">
      <path d="M 246.764018 384.48 
L 246.764018 51.84 
" clip-path="url(#p49fbeaba50)" style="fill: none; stroke-dasharray: 1.85,0.8; stroke-dashoffset: 0; stroke: #808080; stroke-width: 0.5"/>
     </g>
     <g id="line2d_10">
      <g>
       <use xlink:href="#m54437a5627" x="246.764018" y="239.759813" style="stroke: #000000; stroke-width: 0.8"/>
      </g>
     </g>
     <g id="text_5">
      <!-- 0.0 -->
      <g transform="translate(238.812455 254.358251) scale(0.1 -0.1)">
       <use xlink:href="#DejaVuSans-30"/>
       <use xlink:href="#DejaVuSans-2e" x="63.623047"/>
       <use xlink:href="#DejaVuSans-30" x="95.410156"/>
      </g>
     </g>
    </g>
    <g id="xtick_6">
     <g id="line2d_11">
      <path d="M 287.131594 384.48 
L 287.131594 51.84 
" clip-path="url(#p49fbeaba50)" style="fill: none; stroke-dasharray: 1.85,0.8; stroke-dashoffset: 0; stroke: #808080; stroke-width: 0.5"/>
     </g>
     <g id="line2d_12">
      <g>
       <use xlink:href="#m54437a5627" x="287.131594" y="239.759813" style="stroke: #000000; stroke-width: 0.8"/>
      </g>
     </g>
     <g id="text_6">
      <!-- 2.5 -->
      <g transform="translate(279.180032 254.358251) scale(0.1 -0.1)">
       <use xlink:href="#DejaVuSans-32"/>
       <use xlink:href="#DejaVuSans-2e" x="63.623047"/>
       <use xlink:href="#DejaVuSans-35" x="95.410156"/>
      </g>
     </g>
    </g>
    <g id="xtick_7">
     <g id="line2d_13">
      <path d="M 327.49917 384.48 
L 327.49917 51.84 
" clip-path="url(#p49fbeaba50)" style="fill: none; stroke-dasharray: 1.85,0.8; stroke-dashoffset: 0; stroke: #808080; stroke-width: 0.5"/>
     </g>
     <g id="line2d_14">
      <g>
       <use xlink:href="#m54437a5627" x="327.49917" y="239.759813" style="stroke: #000000; stroke-width: 0.8"/>
      </g>
     </g>
     <g id="text_7">
      <!-- 5.0 -->
      <g transform="translate(319.547608 254.358251) scale(0.1 -0.1)">
       <use xlink:href="#DejaVuSans-35"/>
       <use xlink:href="#DejaVuSans-2e" x="63.623047"/>
       <use xlink:href="#DejaVuSans-30" x="95.410156"/>
      </g>
     </g>
    </g>
    <g id="xtick_8">
     <g id="line2d_15">
      <path d="M 367.866746 384.48 
L 367.866746 51.84 
" clip-path="url(#p49fbeaba50)" style="fill: none; stroke-dasharray: 1.85,0.8; stroke-dashoffset: 0; stroke: #808080; stroke-width: 0.5"/>
     </g>
     <g id="line2d_16">
      <g>
       <use xlink:href="#m54437a5627" x="367.866746" y="239.759813" style="stroke: #000000; stroke-width: 0.8"/>
      </g>
     </g>
     <g id="text_8">
      <!-- 7.5 -->
      <g transform="translate(359.915184 254.358251) scale(0.1 -0.1)">
       <use xlink:href="#DejaVuSans-37"/>
       <use xlink:href="#DejaVuSans-2e" x="63.623047"/>
       <use xlink:href="#DejaVuSans-35" x="95.410156"/>
      </g>
     </g>
    </g>
    <g id="text_9">
     <!-- x -->
     <g transform="translate(218.440625 268.036376) scale(0.1 -0.1)">
      <defs>
       <path id="DejaVuSans-78" d="M 3513 3500 
L 2247 1797 
L 3578 0 
L 2900 0 
L 1881 1375 
L 863 0 
L 184 0 
L 1544 1831 
L 300 3500 
L 978 3500 
L 1906 2253 
L 2834 3500 
L 3513 3500 
z
" transform="scale(0.015625)"/>
      </defs>
      <use xlink:href="#DejaVuSans-78"/>
     </g>
    </g>
   </g>
   <g id="matplotlib.axis_2">
    <g id="ytick_1">
     <g id="line2d_17">
      <path d="M 54 377.270001 
L 388.8 377.270001 
" clip-path="url(#p49fbeaba50)" style="fill: none; stroke-dasharray: 1.85,0.8; stroke-dashoffset: 0; stroke: #808080; stroke-width: 0.5"/>
     </g>
     <g id="line2d_18">
      <defs>
       <path id="m064323fc01" d="M 0 0 
L -3.5 0 
" style="stroke: #000000; stroke-width: 0.8"/>
      </defs>
      <g>
       <use xlink:href="#m064323fc01" x="246.764018" y="377.270001" style="stroke: #000000; stroke-width: 0.8"/>
      </g>
     </g>
     <g id="text_10">
      <!-- −10 -->
      <g transform="translate(218.65933 381.06922) scale(0.1 -0.1)">
       <use xlink:href="#DejaVuSans-2212"/>
       <use xlink:href="#DejaVuSans-31" x="83.789062"/>
       <use xlink:href="#DejaVuSans-30" x="147.412109"/>
      </g>
     </g>
    </g>
    <g id="ytick_2">
     <g id="line2d_19">
      <path d="M 54 308.514907 
L 388.8 308.514907 
" clip-path="url(#p49fbeaba50)" style="fill: none; stroke-dasharray: 1.85,0.8; stroke-dashoffset: 0; stroke: #808080; stroke-width: 0.5"/>
     </g>
     <g id="line2d_20">
      <g>
       <use xlink:href="#m064323fc01" x="246.764018" y="308.514907" style="stroke: #000000; stroke-width: 0.8"/>
      </g>
     </g>
     <g id="text_11">
      <!-- −5 -->
      <g transform="translate(225.02183 312.314126) scale(0.1 -0.1)">
       <use xlink:href="#DejaVuSans-2212"/>
       <use xlink:href="#DejaVuSans-35" x="83.789062"/>
      </g>
     </g>
    </g>
    <g id="ytick_3">
     <g id="line2d_21">
      <path d="M 54 239.759813 
L 388.8 239.759813 
" clip-path="url(#p49fbeaba50)" style="fill: none; stroke-dasharray: 1.85,0.8; stroke-dashoffset: 0; stroke: #808080; stroke-width: 0.5"/>
     </g>
     <g id="line2d_22">
      <g>
       <use xlink:href="#m064323fc01" x="246.764018" y="239.759813" style="stroke: #000000; stroke-width: 0.8"/>
      </g>
     </g>
     <g id="text_12">
      <!-- 0 -->
      <g transform="translate(233.401518 243.559032) scale(0.1 -0.1)">
       <use xlink:href="#DejaVuSans-30"/>
      </g>
     </g>
    </g>
    <g id="ytick_4">
     <g id="line2d_23">
      <path d="M 54 171.004719 
L 388.8 171.004719 
" clip-path="url(#p49fbeaba50)" style="fill: none; stroke-dasharray: 1.85,0.8; stroke-dashoffset: 0; stroke: #808080; stroke-width: 0.5"/>
     </g>
     <g id="line2d_24">
      <g>
       <use xlink:href="#m064323fc01" x="246.764018" y="171.004719" style="stroke: #000000; stroke-width: 0.8"/>
      </g>
     </g>
     <g id="text_13">
      <!-- 5 -->
      <g transform="translate(233.401518 174.803938) scale(0.1 -0.1)">
       <use xlink:href="#DejaVuSans-35"/>
      </g>
     </g>
    </g>
    <g id="ytick_5">
     <g id="line2d_25">
      <path d="M 54 102.249625 
L 388.8 102.249625 
" clip-path="url(#p49fbeaba50)" style="fill: none; stroke-dasharray: 1.85,0.8; stroke-dashoffset: 0; stroke: #808080; stroke-width: 0.5"/>
     </g>
     <g id="line2d_26">
      <g>
       <use xlink:href="#m064323fc01" x="246.764018" y="102.249625" style="stroke: #000000; stroke-width: 0.8"/>
      </g>
     </g>
     <g id="text_14">
      <!-- 10 -->
      <g transform="translate(227.039018 106.048844) scale(0.1 -0.1)">
       <use xlink:href="#DejaVuSans-31"/>
       <use xlink:href="#DejaVuSans-30" x="63.623047"/>
      </g>
     </g>
    </g>
    <g id="text_15">
     <!-- y -->
     <g transform="translate(212.579643 221.119375) rotate(-90) scale(0.1 -0.1)">
      <defs>
       <path id="DejaVuSans-79" d="M 2059 -325 
Q 1816 -950 1584 -1140 
Q 1353 -1331 966 -1331 
L 506 -1331 
L 506 -850 
L 844 -850 
Q 1081 -850 1212 -737 
Q 1344 -625 1503 -206 
L 1606 56 
L 191 3500 
L 800 3500 
L 1894 763 
L 2988 3500 
L 3597 3500 
L 2059 -325 
z
" transform="scale(0.015625)"/>
      </defs>
      <use xlink:href="#DejaVuSans-79"/>
     </g>
    </g>
   </g>
   <g id="line2d_27">
    <path d="M 262.912428 239.759823 
L 263.565183 239.867975 
L 264.691086 240.266584 
L 265.892003 240.916093 
L 267.140328 241.839006 
L 268.32146 242.987403 
L 269.359031 244.291172 
L 270.312709 245.858494 
L 271.041724 247.472241 
L 271.614899 249.287149 
L 271.990381 251.291558 
L 272.124866 253.187677 
L 272.051161 255.201399 
L 271.745185 257.315225 
L 271.184974 259.508897 
L 270.351072 261.759594 
L 269.405803 263.715134 
L 268.238633 265.677048 
L 266.842851 267.627281 
L 265.213746 269.546942 
L 263.348718 271.416463 
L 261.247371 273.215764 
L 258.911588 274.924435 
L 256.345588 276.521911 
L 253.555963 277.987668 
L 250.551691 279.30141 
L 247.344136 280.443265 
L 243.947017 281.393981 
L 240.376363 282.135117 
L 236.650446 282.649235 
L 232.789687 282.920087 
L 229.485531 282.949191 
L 226.117319 282.791202 
L 222.699934 282.439131 
L 219.249053 281.886864 
L 215.781082 281.129216 
L 212.313071 280.161989 
L 208.862639 278.98202 
L 205.447881 277.587227 
L 202.08728 275.976648 
L 198.799611 274.150472 
L 195.603838 272.110072 
L 192.519018 269.858022 
L 189.564193 267.398114 
L 186.758283 264.735367 
L 184.119982 261.876028 
L 181.667643 258.827568 
L 179.419177 255.59867 
L 177.778877 252.892234 
L 176.288762 250.082213 
L 174.957113 247.174672 
L 173.791871 244.176132 
L 172.800603 241.093556 
L 171.990472 237.934334 
L 171.368202 234.706264 
L 170.940049 231.417535 
L 170.711772 228.076706 
L 170.688603 224.692682 
L 170.87522 221.274692 
L 171.275724 217.832264 
L 171.893614 214.375197 
L 172.731763 210.913535 
L 173.7924 207.457535 
L 175.077093 204.017641 
L 176.586725 200.604449 
L 178.321491 197.228675 
L 180.280875 193.901126 
L 182.463646 190.632662 
L 184.867849 187.434161 
L 187.490799 184.316488 
L 190.329075 181.290456 
L 193.378525 178.366792 
L 196.634262 175.556099 
L 200.090671 172.868824 
L 203.741414 170.315215 
L 207.579439 167.905293 
L 211.596991 165.64881 
L 215.785629 163.555216 
L 220.136236 161.633626 
L 224.639043 159.892784 
L 229.283647 158.341027 
L 234.059035 156.986258 
L 238.953609 155.835911 
L 243.955216 154.896919 
L 249.051174 154.175689 
L 254.228307 153.678069 
L 259.472979 153.409327 
L 264.771128 153.374122 
L 270.108303 153.57648 
L 275.469708 154.019774 
L 280.840238 154.706706 
L 286.204524 155.639284 
L 291.546977 156.81881 
L 296.851831 158.245865 
L 302.103193 159.920295 
L 307.285085 161.841203 
L 312.381499 164.006941 
L 317.37644 166.415106 
L 322.253977 169.062534 
L 326.998293 171.945301 
L 331.593737 175.058727 
L 336.02487 178.397374 
L 340.27652 181.955059 
L 344.333826 185.724858 
L 348.182292 189.699121 
L 350.923103 192.808991 
L 353.532737 196.025394 
L 356.005579 199.344325 
L 358.336179 202.761568 
L 360.51927 206.2727 
L 362.549772 209.873097 
L 364.422806 213.55794 
L 366.133704 217.322219 
L 367.678018 221.160744 
L 369.051531 225.068149 
L 370.250263 229.038899 
L 371.270484 233.0673 
L 372.108721 237.147506 
L 372.761767 241.273527 
L 373.226687 245.439238 
L 373.500826 249.638389 
L 373.581818 253.864613 
L 373.467591 258.111439 
L 373.156374 262.372294 
L 372.646701 266.640524 
L 371.937418 270.909395 
L 371.027688 275.172109 
L 369.916993 279.421813 
L 368.605141 283.65161 
L 367.092266 287.854572 
L 365.378833 292.023747 
L 363.465639 296.152174 
L 361.353815 300.232896 
L 359.044826 304.258966 
L 356.540473 308.223465 
L 353.842894 312.119509 
L 350.95456 315.940262 
L 347.878275 319.678951 
L 344.617176 323.328872 
L 341.174728 326.883409 
L 337.554724 330.336038 
L 333.761278 333.680344 
L 329.798825 336.91003 
L 325.672112 340.018932 
L 321.386195 343.001024 
L 316.946435 345.850436 
L 312.358489 348.56146 
L 307.628301 351.128564 
L 302.762101 353.546401 
L 297.766392 355.809818 
L 292.647943 357.913871 
L 287.413779 359.853829 
L 282.071175 361.625187 
L 276.62764 363.223675 
L 271.090912 364.645267 
L 265.468945 365.886188 
L 259.769898 366.942924 
L 254.002121 367.812228 
L 248.174147 368.491129 
L 242.294675 368.976942 
L 236.37256 369.267266 
L 230.416799 369.36 
L 224.436518 369.253343 
L 218.440953 368.945799 
L 212.439446 368.436187 
L 206.441419 367.72364 
L 200.456367 366.807611 
L 194.49384 365.687876 
L 188.563428 364.364538 
L 182.674748 362.838027 
L 176.837422 361.109104 
L 171.061069 359.178863 
L 165.355285 357.048727 
L 159.729628 354.720454 
L 154.193603 352.196133 
L 148.756642 349.478185 
L 143.428096 346.569359 
L 138.21721 343.472732 
L 133.133114 340.191708 
L 128.184804 336.730011 
L 123.381128 333.091683 
L 118.730768 329.281082 
L 114.242227 325.302872 
L 109.923814 321.162023 
L 105.783627 316.863803 
L 101.82954 312.413771 
L 98.069187 307.81777 
L 94.509951 303.081921 
L 91.158947 298.212614 
L 88.023009 293.2165 
L 85.108677 288.100481 
L 82.422188 282.871702 
L 79.969457 277.537541 
L 77.756071 272.105596 
L 75.787274 266.583679 
L 74.067958 260.979801 
L 72.602652 255.302163 
L 71.395513 249.559139 
L 70.450313 243.759273 
L 69.770436 237.911255 
L 69.358867 232.023918 
L 69.218182 226.106218 
L 69.350545 220.167223 
L 69.7577 214.2161 
L 70.440966 208.262098 
L 71.401229 202.314537 
L 72.638944 196.38279 
L 74.154122 190.47627 
L 75.946338 184.604417 
L 78.014719 178.776679 
L 80.357949 173.0025 
L 82.974264 167.291303 
L 85.861456 161.652474 
L 89.016868 156.09535 
L 92.437401 150.6292 
L 96.119512 145.263212 
L 100.059221 140.006476 
L 104.252109 134.867969 
L 108.693327 129.856542 
L 113.377599 124.980901 
L 118.299227 120.249597 
L 123.452099 115.671006 
L 128.829696 111.253318 
L 134.425099 107.004522 
L 140.230999 102.932391 
L 146.239703 99.044469 
L 152.443148 95.348055 
L 158.83291 91.850196 
L 165.400213 88.557666 
L 172.135944 85.476958 
L 179.030666 82.614273 
L 186.074627 79.975504 
L 193.257777 77.566228 
L 200.569781 75.391695 
L 208.000036 73.456815 
L 215.537682 71.76615 
L 223.171623 70.323904 
L 230.890537 69.133916 
L 238.682901 68.199648 
L 246.537 67.524179 
L 254.44095 67.110199 
L 262.382713 66.96 
L 270.350118 67.075471 
L 278.330877 67.458093 
L 286.312605 68.108934 
L 294.28284 69.028645 
L 302.229062 70.217453 
L 310.138712 71.675164 
L 317.999212 73.401158 
L 325.797986 75.394386 
L 333.522478 77.653371 
L 341.160176 80.176208 
L 348.698628 82.960561 
L 356.125463 86.003672 
L 363.428415 89.302353 
L 363.428415 89.302353 
" clip-path="url(#p49fbeaba50)" style="fill: none; stroke: #1f77b4; stroke-width: 1.5; stroke-linecap: square"/>
   </g>
   <g id="patch_3">
    <path d="M 246.764018 384.48 
L 246.764018 51.84 
" style="fill: none; stroke: #000000; stroke-width: 0.8; stroke-linejoin: miter; stroke-linecap: square"/>
   </g>
   <g id="patch_4">
    <path d="M 388.8 384.48 
L 388.8 51.84 
" style="fill: none"/>
   </g>
   <g id="patch_5">
    <path d="M 54 239.759813 
L 388.8 239.759813 
" style="fill: none; stroke: #000000; stroke-width: 0.8; stroke-linejoin: miter; stroke-linecap: square"/>
   </g>
   <g id="patch_6">
    <path d="M 54 51.84 
L 388.8 51.84 
" style="fill: none"/>
   </g>
   <g id="text_16">
    <!-- $x = \cos(h) + h \cdot \sin(h)$ -->
    <g transform="translate(254.837533 281.012869) scale(0.12 -0.12)">
     <defs>
      <path id="DejaVuSans-Oblique-78" d="M 3841 3500 
L 2234 1784 
L 3219 0 
L 2559 0 
L 1819 1388 
L 531 0 
L -166 0 
L 1556 1844 
L 641 3500 
L 1300 3500 
L 1972 2234 
L 3144 3500 
L 3841 3500 
z
" transform="scale(0.015625)"/>
      <path id="DejaVuSans-3d" d="M 678 2906 
L 4684 2906 
L 4684 2381 
L 678 2381 
L 678 2906 
z
M 678 1631 
L 4684 1631 
L 4684 1100 
L 678 1100 
L 678 1631 
z
" transform="scale(0.015625)"/>
      <path id="DejaVuSans-63" d="M 3122 3366 
L 3122 2828 
Q 2878 2963 2633 3030 
Q 2388 3097 2138 3097 
Q 1578 3097 1268 2742 
Q 959 2388 959 1747 
Q 959 1106 1268 751 
Q 1578 397 2138 397 
Q 2388 397 2633 464 
Q 2878 531 3122 666 
L 3122 134 
Q 2881 22 2623 -34 
Q 2366 -91 2075 -91 
Q 1284 -91 818 406 
Q 353 903 353 1747 
Q 353 2603 823 3093 
Q 1294 3584 2113 3584 
Q 2378 3584 2631 3529 
Q 2884 3475 3122 3366 
z
" transform="scale(0.015625)"/>
      <path id="DejaVuSans-6f" d="M 1959 3097 
Q 1497 3097 1228 2736 
Q 959 2375 959 1747 
Q 959 1119 1226 758 
Q 1494 397 1959 397 
Q 2419 397 2687 759 
Q 2956 1122 2956 1747 
Q 2956 2369 2687 2733 
Q 2419 3097 1959 3097 
z
M 1959 3584 
Q 2709 3584 3137 3096 
Q 3566 2609 3566 1747 
Q 3566 888 3137 398 
Q 2709 -91 1959 -91 
Q 1206 -91 779 398 
Q 353 888 353 1747 
Q 353 2609 779 3096 
Q 1206 3584 1959 3584 
z
" transform="scale(0.015625)"/>
      <path id="DejaVuSans-73" d="M 2834 3397 
L 2834 2853 
Q 2591 2978 2328 3040 
Q 2066 3103 1784 3103 
Q 1356 3103 1142 2972 
Q 928 2841 928 2578 
Q 928 2378 1081 2264 
Q 1234 2150 1697 2047 
L 1894 2003 
Q 2506 1872 2764 1633 
Q 3022 1394 3022 966 
Q 3022 478 2636 193 
Q 2250 -91 1575 -91 
Q 1294 -91 989 -36 
Q 684 19 347 128 
L 347 722 
Q 666 556 975 473 
Q 1284 391 1588 391 
Q 1994 391 2212 530 
Q 2431 669 2431 922 
Q 2431 1156 2273 1281 
Q 2116 1406 1581 1522 
L 1381 1569 
Q 847 1681 609 1914 
Q 372 2147 372 2553 
Q 372 3047 722 3315 
Q 1072 3584 1716 3584 
Q 2034 3584 2315 3537 
Q 2597 3491 2834 3397 
z
" transform="scale(0.015625)"/>
      <path id="DejaVuSans-28" d="M 1984 4856 
Q 1566 4138 1362 3434 
Q 1159 2731 1159 2009 
Q 1159 1288 1364 580 
Q 1569 -128 1984 -844 
L 1484 -844 
Q 1016 -109 783 600 
Q 550 1309 550 2009 
Q 550 2706 781 3412 
Q 1013 4119 1484 4856 
L 1984 4856 
z
" transform="scale(0.015625)"/>
      <path id="DejaVuSans-Oblique-68" d="M 3566 2113 
L 3156 0 
L 2578 0 
L 2988 2091 
Q 3016 2238 3031 2350 
Q 3047 2463 3047 2528 
Q 3047 2791 2881 2937 
Q 2716 3084 2419 3084 
Q 1956 3084 1617 2771 
Q 1278 2459 1178 1941 
L 800 0 
L 225 0 
L 1172 4863 
L 1747 4863 
L 1375 2950 
Q 1594 3244 1934 3414 
Q 2275 3584 2650 3584 
Q 3113 3584 3367 3334 
Q 3622 3084 3622 2631 
Q 3622 2519 3608 2391 
Q 3594 2263 3566 2113 
z
" transform="scale(0.015625)"/>
      <path id="DejaVuSans-29" d="M 513 4856 
L 1013 4856 
Q 1481 4119 1714 3412 
Q 1947 2706 1947 2009 
Q 1947 1309 1714 600 
Q 1481 -109 1013 -844 
L 513 -844 
Q 928 -128 1133 580 
Q 1338 1288 1338 2009 
Q 1338 2731 1133 3434 
Q 928 4138 513 4856 
z
" transform="scale(0.015625)"/>
      <path id="DejaVuSans-2b" d="M 2944 4013 
L 2944 2272 
L 4684 2272 
L 4684 1741 
L 2944 1741 
L 2944 0 
L 2419 0 
L 2419 1741 
L 678 1741 
L 678 2272 
L 2419 2272 
L 2419 4013 
L 2944 4013 
z
" transform="scale(0.015625)"/>
      <path id="DejaVuSans-22c5" d="M 684 2619 
L 1344 2619 
L 1344 1825 
L 684 1825 
L 684 2619 
z
" transform="scale(0.015625)"/>
      <path id="DejaVuSans-69" d="M 603 3500 
L 1178 3500 
L 1178 0 
L 603 0 
L 603 3500 
z
M 603 4863 
L 1178 4863 
L 1178 4134 
L 603 4134 
L 603 4863 
z
" transform="scale(0.015625)"/>
      <path id="DejaVuSans-6e" d="M 3513 2113 
L 3513 0 
L 2938 0 
L 2938 2094 
Q 2938 2591 2744 2837 
Q 2550 3084 2163 3084 
Q 1697 3084 1428 2787 
Q 1159 2491 1159 1978 
L 1159 0 
L 581 0 
L 581 3500 
L 1159 3500 
L 1159 2956 
Q 1366 3272 1645 3428 
Q 1925 3584 2291 3584 
Q 2894 3584 3203 3211 
Q 3513 2838 3513 2113 
z
" transform="scale(0.015625)"/>
     </defs>
     <use xlink:href="#DejaVuSans-Oblique-78" transform="translate(0 0.015625)"/>
     <use xlink:href="#DejaVuSans-3d" transform="translate(78.662109 0.015625)"/>
     <use xlink:href="#DejaVuSans-63" transform="translate(181.933594 0.015625)"/>
     <use xlink:href="#DejaVuSans-6f" transform="translate(236.914062 0.015625)"/>
     <use xlink:href="#DejaVuSans-73" transform="translate(298.095703 0.015625)"/>
     <use xlink:href="#DejaVuSans-28" transform="translate(350.195312 0.015625)"/>
     <use xlink:href="#DejaVuSans-Oblique-68" transform="translate(389.208984 0.015625)"/>
     <use xlink:href="#DejaVuSans-29" transform="translate(452.587891 0.015625)"/>
     <use xlink:href="#DejaVuSans-2b" transform="translate(511.083984 0.015625)"/>
     <use xlink:href="#DejaVuSans-Oblique-68" transform="translate(614.355469 0.015625)"/>
     <use xlink:href="#DejaVuSans-22c5" transform="translate(697.216797 0.015625)"/>
     <use xlink:href="#DejaVuSans-73" transform="translate(748.486328 0.015625)"/>
     <use xlink:href="#DejaVuSans-69" transform="translate(800.585938 0.015625)"/>
     <use xlink:href="#DejaVuSans-6e" transform="translate(828.369141 0.015625)"/>
     <use xlink:href="#DejaVuSans-28" transform="translate(891.748047 0.015625)"/>
     <use xlink:href="#DejaVuSans-Oblique-68" transform="translate(930.761719 0.015625)"/>
     <use xlink:href="#DejaVuSans-29" transform="translate(994.140625 0.015625)"/>
    </g>
   </g>
   <g id="text_17">
    <!-- $y = \sin(h) - h \cdot \cos(h)$ -->
    <g transform="translate(254.837533 308.514907) scale(0.12 -0.12)">
     <defs>
      <path id="DejaVuSans-Oblique-79" d="M 1588 -325 
Q 1188 -997 936 -1164 
Q 684 -1331 294 -1331 
L -159 -1331 
L -63 -850 
L 269 -850 
Q 509 -850 678 -719 
Q 847 -588 1056 -206 
L 1234 128 
L 459 3500 
L 1069 3500 
L 1650 819 
L 3256 3500 
L 3859 3500 
L 1588 -325 
z
" transform="scale(0.015625)"/>
     </defs>
     <use xlink:href="#DejaVuSans-Oblique-79" transform="translate(0 0.015625)"/>
     <use xlink:href="#DejaVuSans-3d" transform="translate(78.662109 0.015625)"/>
     <use xlink:href="#DejaVuSans-73" transform="translate(181.933594 0.015625)"/>
     <use xlink:href="#DejaVuSans-69" transform="translate(234.033203 0.015625)"/>
     <use xlink:href="#DejaVuSans-6e" transform="translate(261.816406 0.015625)"/>
     <use xlink:href="#DejaVuSans-28" transform="translate(325.195312 0.015625)"/>
     <use xlink:href="#DejaVuSans-Oblique-68" transform="translate(364.208984 0.015625)"/>
     <use xlink:href="#DejaVuSans-29" transform="translate(427.587891 0.015625)"/>
     <use xlink:href="#DejaVuSans-2212" transform="translate(486.083984 0.015625)"/>
     <use xlink:href="#DejaVuSans-Oblique-68" transform="translate(589.355469 0.015625)"/>
     <use xlink:href="#DejaVuSans-22c5" transform="translate(672.216797 0.015625)"/>
     <use xlink:href="#DejaVuSans-63" transform="translate(723.486328 0.015625)"/>
     <use xlink:href="#DejaVuSans-6f" transform="translate(778.466797 0.015625)"/>
     <use xlink:href="#DejaVuSans-73" transform="translate(839.648438 0.015625)"/>
     <use xlink:href="#DejaVuSans-28" transform="translate(891.748047 0.015625)"/>
     <use xlink:href="#DejaVuSans-Oblique-68" transform="translate(930.761719 0.015625)"/>
     <use xlink:href="#DejaVuSans-29" transform="translate(994.140625 0.015625)"/>
    </g>
   </g>
   <g id="text_18">
    <!-- Параметрическая кривая -->
    <g transform="translate(127.361562 45.84) scale(0.14 -0.14)">
     <defs>
      <path id="DejaVuSans-41f" d="M 4184 4666 
L 4184 0 
L 3553 0 
L 3553 4134 
L 1259 4134 
L 1259 0 
L 628 0 
L 628 4666 
L 4184 4666 
z
" transform="scale(0.015625)"/>
      <path id="DejaVuSans-430" d="M 2194 1759 
Q 1497 1759 1228 1600 
Q 959 1441 959 1056 
Q 959 750 1161 570 
Q 1363 391 1709 391 
Q 2188 391 2477 730 
Q 2766 1069 2766 1631 
L 2766 1759 
L 2194 1759 
z
M 3341 1997 
L 3341 0 
L 2766 0 
L 2766 531 
Q 2569 213 2275 61 
Q 1981 -91 1556 -91 
Q 1019 -91 701 211 
Q 384 513 384 1019 
Q 384 1609 779 1909 
Q 1175 2209 1959 2209 
L 2766 2209 
L 2766 2266 
Q 2766 2663 2505 2880 
Q 2244 3097 1772 3097 
Q 1472 3097 1187 3025 
Q 903 2953 641 2809 
L 641 3341 
Q 956 3463 1253 3523 
Q 1550 3584 1831 3584 
Q 2591 3584 2966 3190 
Q 3341 2797 3341 1997 
z
" transform="scale(0.015625)"/>
      <path id="DejaVuSans-440" d="M 1159 525 
L 1159 -1331 
L 581 -1331 
L 581 3500 
L 1159 3500 
L 1159 2969 
Q 1341 3281 1617 3432 
Q 1894 3584 2278 3584 
Q 2916 3584 3314 3078 
Q 3713 2572 3713 1747 
Q 3713 922 3314 415 
Q 2916 -91 2278 -91 
Q 1894 -91 1617 61 
Q 1341 213 1159 525 
z
M 3116 1747 
Q 3116 2381 2855 2742 
Q 2594 3103 2138 3103 
Q 1681 3103 1420 2742 
Q 1159 2381 1159 1747 
Q 1159 1113 1420 752 
Q 1681 391 2138 391 
Q 2594 391 2855 752 
Q 3116 1113 3116 1747 
z
" transform="scale(0.015625)"/>
      <path id="DejaVuSans-43c" d="M 581 3500 
L 1422 3500 
L 2416 1156 
L 3413 3500 
L 4247 3500 
L 4247 0 
L 3669 0 
L 3669 2950 
L 2703 672 
L 2128 672 
L 1159 2950 
L 1159 0 
L 581 0 
L 581 3500 
z
" transform="scale(0.015625)"/>
      <path id="DejaVuSans-435" d="M 3597 1894 
L 3597 1613 
L 953 1613 
Q 991 1019 1311 708 
Q 1631 397 2203 397 
Q 2534 397 2845 478 
Q 3156 559 3463 722 
L 3463 178 
Q 3153 47 2828 -22 
Q 2503 -91 2169 -91 
Q 1331 -91 842 396 
Q 353 884 353 1716 
Q 353 2575 817 3079 
Q 1281 3584 2069 3584 
Q 2775 3584 3186 3129 
Q 3597 2675 3597 1894 
z
M 3022 2063 
Q 3016 2534 2758 2815 
Q 2500 3097 2075 3097 
Q 1594 3097 1305 2825 
Q 1016 2553 972 2059 
L 3022 2063 
z
" transform="scale(0.015625)"/>
      <path id="DejaVuSans-442" d="M 188 3500 
L 3541 3500 
L 3541 3041 
L 2147 3041 
L 2147 0 
L 1581 0 
L 1581 3041 
L 188 3041 
L 188 3500 
z
" transform="scale(0.015625)"/>
      <path id="DejaVuSans-438" d="M 3578 3500 
L 3578 0 
L 3006 0 
L 3006 2809 
L 1319 0 
L 581 0 
L 581 3500 
L 1153 3500 
L 1153 697 
L 2838 3500 
L 3578 3500 
z
" transform="scale(0.015625)"/>
      <path id="DejaVuSans-447" d="M 2625 0 
L 2625 1472 
L 1553 1472 
Q 1075 1472 756 1769 
Q 469 2038 469 2613 
L 469 3500 
L 1044 3500 
L 1044 2666 
Q 1044 2300 1206 2116 
Q 1372 1931 1697 1931 
L 2625 1931 
L 2625 3500 
L 3200 3500 
L 3200 0 
L 2625 0 
z
" transform="scale(0.015625)"/>
      <path id="DejaVuSans-441" d="M 3122 3366 
L 3122 2828 
Q 2878 2963 2633 3030 
Q 2388 3097 2138 3097 
Q 1578 3097 1268 2742 
Q 959 2388 959 1747 
Q 959 1106 1268 751 
Q 1578 397 2138 397 
Q 2388 397 2633 464 
Q 2878 531 3122 666 
L 3122 134 
Q 2881 22 2623 -34 
Q 2366 -91 2075 -91 
Q 1284 -91 818 406 
Q 353 903 353 1747 
Q 353 2603 823 3093 
Q 1294 3584 2113 3584 
Q 2378 3584 2631 3529 
Q 2884 3475 3122 3366 
z
" transform="scale(0.015625)"/>
      <path id="DejaVuSans-43a" d="M 581 3500 
L 1153 3500 
L 1153 1856 
L 2775 3500 
L 3481 3500 
L 2144 2147 
L 3653 0 
L 3009 0 
L 1769 1766 
L 1153 1141 
L 1153 0 
L 581 0 
L 581 3500 
z
" transform="scale(0.015625)"/>
      <path id="DejaVuSans-44f" d="M 1181 2491 
Q 1181 2231 1381 2084 
Q 1581 1938 1953 1938 
L 2728 1938 
L 2728 3041 
L 1953 3041 
Q 1581 3041 1381 2897 
Q 1181 2753 1181 2491 
z
M 363 0 
L 1431 1534 
Q 1069 1616 828 1830 
Q 588 2044 588 2491 
Q 588 2997 923 3248 
Q 1259 3500 1938 3500 
L 3306 3500 
L 3306 0 
L 2728 0 
L 2728 1478 
L 2013 1478 
L 981 0 
L 363 0 
z
" transform="scale(0.015625)"/>
      <path id="DejaVuSans-20" transform="scale(0.015625)"/>
      <path id="DejaVuSans-432" d="M 1156 1613 
L 1156 459 
L 1975 459 
Q 2369 459 2575 607 
Q 2781 756 2781 1038 
Q 2781 1319 2575 1466 
Q 2369 1613 1975 1613 
L 1156 1613 
z
M 1156 3041 
L 1156 2072 
L 1913 2072 
Q 2238 2072 2444 2201 
Q 2650 2331 2650 2563 
Q 2650 2794 2444 2917 
Q 2238 3041 1913 3041 
L 1156 3041 
z
M 581 3500 
L 1950 3500 
Q 2566 3500 2897 3275 
Q 3228 3050 3228 2634 
Q 3228 2313 3059 2123 
Q 2891 1934 2559 1888 
Q 2956 1813 3175 1575 
Q 3394 1338 3394 981 
Q 3394 513 3033 256 
Q 2672 0 2003 0 
L 581 0 
L 581 3500 
z
" transform="scale(0.015625)"/>
     </defs>
     <use xlink:href="#DejaVuSans-41f"/>
     <use xlink:href="#DejaVuSans-430" x="75.195312"/>
     <use xlink:href="#DejaVuSans-440" x="136.474609"/>
     <use xlink:href="#DejaVuSans-430" x="199.951172"/>
     <use xlink:href="#DejaVuSans-43c" x="261.230469"/>
     <use xlink:href="#DejaVuSans-435" x="336.669922"/>
     <use xlink:href="#DejaVuSans-442" x="398.193359"/>
     <use xlink:href="#DejaVuSans-440" x="456.445312"/>
     <use xlink:href="#DejaVuSans-438" x="519.921875"/>
     <use xlink:href="#DejaVuSans-447" x="584.912109"/>
     <use xlink:href="#DejaVuSans-435" x="643.994141"/>
     <use xlink:href="#DejaVuSans-441" x="705.517578"/>
     <use xlink:href="#DejaVuSans-43a" x="760.498047"/>
     <use xlink:href="#DejaVuSans-430" x="820.898438"/>
     <use xlink:href="#DejaVuSans-44f" x="882.177734"/>
     <use xlink:href="#DejaVuSans-20" x="942.333984"/>
     <use xlink:href="#DejaVuSans-43a" x="974.121094"/>
     <use xlink:href="#DejaVuSans-440" x="1034.521484"/>
     <use xlink:href="#DejaVuSans-438" x="1097.998047"/>
     <use xlink:href="#DejaVuSans-432" x="1162.988281"/>
     <use xlink:href="#DejaVuSans-430" x="1221.923828"/>
     <use xlink:href="#DejaVuSans-44f" x="1283.203125"/>
    </g>
   </g>
   <g id="legend_1">
    <g id="patch_7">
     <path d="M 61 74.518125 
L 132.664062 74.518125 
Q 134.664062 74.518125 134.664062 72.518125 
L 134.664062 58.84 
Q 134.664062 56.84 132.664062 56.84 
L 61 56.84 
Q 59 56.84 59 58.84 
L 59 72.518125 
Q 59 74.518125 61 74.518125 
z
" style="fill: #ffffff; opacity: 0.8; stroke: #cccccc; stroke-linejoin: miter"/>
    </g>
    <g id="line2d_28">
     <path d="M 63 64.938438 
L 73 64.938438 
L 83 64.938438 
" style="fill: none; stroke: #1f77b4; stroke-width: 1.5; stroke-linecap: square"/>
    </g>
    <g id="text_19">
     <!-- График -->
     <g transform="translate(91 68.438438) scale(0.1 -0.1)">
      <defs>
       <path id="DejaVuSans-413" d="M 628 0 
L 628 4666 
L 3531 4666 
L 3531 4134 
L 1259 4134 
L 1259 0 
L 628 0 
z
" transform="scale(0.015625)"/>
       <path id="DejaVuSans-444" d="M 947 1747 
Q 947 1013 1173 702 
Q 1400 391 1784 391 
Q 2091 391 2447 916 
L 2447 2578 
Q 2091 3103 1784 3103 
Q 1400 3103 1173 2792 
Q 947 2481 947 1747 
z
M 2447 -1331 
L 2447 447 
Q 2269 153 2064 31 
Q 1859 -91 1600 -91 
Q 1078 -91 714 392 
Q 350 875 350 1734 
Q 350 2594 714 3089 
Q 1078 3584 1600 3584 
Q 1859 3584 2064 3465 
Q 2269 3347 2447 3053 
L 2447 4666 
L 3025 4666 
L 3025 3053 
Q 3203 3347 3408 3465 
Q 3613 3584 3872 3584 
Q 4394 3584 4758 3089 
Q 5122 2594 5122 1734 
Q 5122 875 4758 392 
Q 4394 -91 3872 -91 
Q 3613 -91 3408 31 
Q 3203 153 3025 447 
L 3025 -1331 
L 2447 -1331 
z
M 4525 1747 
Q 4525 2481 4298 2792 
Q 4072 3103 3688 3103 
Q 3381 3103 3025 2578 
L 3025 916 
Q 3381 391 3688 391 
Q 4072 391 4298 702 
Q 4525 1013 4525 1747 
z
" transform="scale(0.015625)"/>
      </defs>
      <use xlink:href="#DejaVuSans-413"/>
      <use xlink:href="#DejaVuSans-440" x="60.986328"/>
      <use xlink:href="#DejaVuSans-430" x="124.462891"/>
      <use xlink:href="#DejaVuSans-444" x="185.742188"/>
      <use xlink:href="#DejaVuSans-438" x="271.240234"/>
      <use xlink:href="#DejaVuSans-43a" x="336.230469"/>
     </g>
    </g>
   </g>
  </g>
 </g>
 <defs>
  <clipPath id="p49fbeaba50">
   <rect x="54" y="51.84" width="334.8" height="332.64"/>
  </clipPath>
 </defs>
</svg>
